<?xml version="1.0" standalone="no"?>
<!DOCTYPE svg PUBLIC "-//W3C//DTD SVG 20010904//EN"
 "http://www.w3.org/TR/2001/REC-SVG-20010904/DTD/svg10.dtd">
<svg version="1.0" xmlns="http://www.w3.org/2000/svg"
 width="115.000000pt" height="115.000000pt" viewBox="0 0 115.000000 115.000000"
 preserveAspectRatio="xMidYMid meet">
<metadata>
Created by potrace 1.11, written by Peter Selinger 2001-2013
</metadata>
<g transform="translate(0.000000,115.000000) scale(0.100000,-0.100000)"
fill="#000000" stroke="none">
<path d="M70 575 l0 -575 333 0 c182 0 358 4 390 10 119 19 218 86 258 175 22
47 25 171 6 222 -19 49 -72 119 -116 151 l-40 29 43 32 c66 50 91 101 90 187
-1 112 -49 196 -153 268 -95 65 -157 74 -518 75 l-293 2 0 -576z m550 290 c29
-15 45 -54 35 -85 -12 -39 -55 -54 -162 -58 l-103 -4 0 80 c0 81 0 81 28 84
58 7 175 -3 202 -17z m20 -418 c33 -17 57 -79 42 -112 -20 -43 -66 -58 -184
-61 l-108 -2 0 94 0 94 113 0 c69 0 121 -5 137 -13z"/>
</g>
</svg>
